<?xml version="1.0" standalone="no"?>

<!DOCTYPE svg PUBLIC "-//W3C//DTD SVG 1.1//EN" "http://www.w3.org/Graphics/SVG/1.1/DTD/svg11.dtd">
<svg width="100%" height="100%" version="1.1" xmlns="http://www.w3.org/2000/svg">
  <rect width="400" height="200" style="fill:FloralWhite;stroke-width:1;stroke:rgb(0,0,0)" />
  
  <line x1="10" y1="180" x2="370" y2="10" style="stroke:rgb(255,255,255);stroke-width:11" /> 
  <line x1="10" y1="175" x2="370" y2="5" style="stroke:Grey;stroke-width:1" />
  <line x1="13" y1="185" x2="374" y2="14" style="stroke:Grey;stroke-width:1" />
  
  <line x1="10" y1="108 " x2="40" y2="170" style="stroke:rgb(255,255,255);stroke-width:6" />
  <line x1="13" y1="108 " x2="38" y2="162" style="stroke:Grey;stroke-width:1" />
  <line x1="7" y1="108 " x2="34" y2="165" style="stroke:Grey;stroke-width:1" />
  
  <line x1="200" y1="0" x2="295" y2="200" style="stroke:rgb(255,255,255);stroke-width:8" />
  <line x1="195" y1="0" x2="290" y2="200" style="stroke:Grey;stroke-width:1" />
  <line x1="205" y1="0" x2="300" y2="200" style="stroke:Grey;stroke-width:1" />
  
  <line x1="156" y1="57" x2="204" y2="160" style="stroke:rgb(255,255,255);stroke-width:6" />
  <line x1="153" y1="57" x2="201" y2="160" style="stroke:Grey;stroke-width:1" />
  <line x1="159" y1="57" x2="207" y2="160" style="stroke:Grey;stroke-width:1" />
  
  <line x1="107" y1="60" x2="154" y2="160" style="stroke:rgb(255,255,255);stroke-width:6" />
  <line x1="104" y1="60" x2="151" y2="160" style="stroke:Grey;stroke-width:1" />
  <line x1="109" y1="59" x2="157" y2="160" style="stroke:Grey;stroke-width:1" />
  
  <line x1="30" y1="0" x2="104" y2="160" style="stroke:rgb(255,255,255);stroke-width:6" />
  <line x1="27" y1="0" x2="101" y2="160" style="stroke:Grey;stroke-width:1" />
  <line x1="33" y1="0" x2="107" y2="160" style="stroke:Grey;stroke-width:1" />
  
  <line x1="10" y1="108" x2="107" y2="60" style="stroke:rgb(255,255,255);stroke-width:6"   />
  <line x1="7" y1="107" x2="109" y2="58" style="stroke:Grey;stroke-width:1"   />
  <line x1="13" y1="109" x2="106" y2="64" style="stroke:Grey;stroke-width:1"   />
  
 <rect x="176" y="79" width="14" height="10" style="fill:red;" />
  <line x1="177" y1="84" x2="189" y2="84" style="stroke:rgb(250,250,250);stroke-width:3" />
  <line x1="183" y1="80" x2="183" y2="88" style="stroke:rgb(250,250,250);stroke-width:3" />
  <line x1="179" y1="75" x2="179" y2="79" style="stroke:rgb(255,0,0);stroke-width:2" />
 <line x1="187" y1="75" x2="187" y2="79" style="stroke:rgb(255,0,0);stroke-width:2" />
<line x1="178" y1="75" x2="188" y2="75" style="stroke:rgb(255,0,0);stroke-width:2" />
</svg>